<svg xmlns="http://www.w3.org/2000/svg" viewBox="0 0 512 512" width="512" height="512">
  <rect width="512" height="512" rx="115" fill="#064e3b"/>
  <circle cx="256" cy="256" r="230" fill="url(#grad)" />
  <defs>
    <linearGradient id="grad" x1="0%" y1="0%" x2="100%" y2="100%">
      <stop offset="0%" stop-color="#047857"/>
      <stop offset="100%" stop-color="#064e3b"/>
    </linearGradient>
  </defs>
  <!-- Sombrero y Campesino -->
  <g transform="scale(12) translate(5, 5)">
    <path d="M10 12.5C10 7.5 11.8 4.5 16 4.5C20.2 4.5 22 7.5 22 12.5" fill="#ca8a04" stroke="#fef08a" stroke-width="1.8" stroke-linecap="round"/>
    <path d="M10.2 11C12 11.8 20 11.8 21.8 11" stroke="#78350f" stroke-width="2.2" stroke-linecap="round"/>
    <path d="M2.5 14C6 11.5 10.5 11 16 11C21.5 11 26 11.5 29.5 14C27 15.8 22 14.8 16 14.8C10 14.8 5 15.8 2.5 14Z" fill="#eab308" stroke="#fef08a" stroke-width="1.6" stroke-linejoin="round"/>
    <path d="M11 15.5V18.5C11 21.5 13.2 24 16 24C18.8 24 21 21.5 21 18.5V15.5" stroke="#ffffff" stroke-width="1.8" stroke-linecap="round"/>
    <path d="M16 17V19" stroke="#ffffff" stroke-width="1.4" stroke-linecap="round"/>
    <path d="M14 20.8C15 21.8 17 21.8 18 20.8" stroke="#ffffff" stroke-width="1.4" stroke-linecap="round"/>
    <path d="M8 29.5C8 26 11.5 25 16 25C20.5 25 24 26 24 29.5" stroke="#ffffff" stroke-width="1.8" stroke-linecap="round"/>
  </g>
</svg>